inDegrees=yes
name=ik_S48_A06_T02
DataType=double
version=3
OpenSimVersion=4.3-2021-08-27-4bc7ad9
endheader
time	pelvis_tilt	pelvis_list	pelvis_rotation	pelvis_tx	pelvis_ty	pelvis_tz	hip_flexion_r	hip_adduction_r	hip_rotation_r	knee_angle_r	knee_angle_r_beta	ankle_angle_r	subtalar_angle_r	mtp_angle_r	hip_flexion_l	hip_adduction_l	hip_rotation_l	knee_angle_l	knee_angle_l_beta	ankle_angle_l	subtalar_angle_l	mtp_angle_l	lumbar_extension	lumbar_bending	lumbar_rotation	arm_flex_r	arm_add_r	arm_rot_r	elbow_flex_r	pro_sup_r	wrist_flex_r	wrist_dev_r	arm_flex_l	arm_add_l	arm_rot_l	elbow_flex_l	pro_sup_l	wrist_flex_l	wrist_dev_l
0	0	0	0	0	0.9399999999999999	0	0	0	0	0	0	0	0	0	0	0	0	0	0	0	0	0	0	0	0	0	0	0	0	89.99999999963507	0	0	0	0	0	0	89.99999999869995	0	0
0.02	-6.696041395130778	-2.133767629795136	25.31110558864449	0	0.9399999999999999	0	2.992792898756967	-1.404300846785057	-1.007823529122646	4.630254425254085	0.08081318492572147	0	0	0	2.992792898756967	-1.404300846785057	-1.007823529122646	4.630254425254085	0.08081318492572147	0	0	0	-3.000724580477943	-3.106986364145564	5.79460235404115	33.57313243112311	-7.998894685803881	-2.49358002129261	52.49839332710519	142.5861786893987	0	0	31.41634224930849	-9.81222096048432	-3.660626316248565	38.28666532495851	119.9304193287723	0	0
0.04	-5.812446254934184	-2.746154551780274	26.02398420823867	0	0.9399999999999999	0	45.68098007599801	-11.62227727877489	-11.85245297949511	50.24929762517083	0.8770156903737985	0	0	0	45.68098007599801	-11.62227727877489	-11.85245297949511	50.24929762517083	0.8770156903737985	0	0	0	-3.526709989854957	-2.116617882258684	5.170369990236596	33.52955805259835	-8.010273709414792	-2.479638465906666	52.5633927973828	142.5772948828852	0	0	31.38513917037951	-9.805349011927628	-3.656141308280756	38.27683501297049	119.8418294045045	0	0
0.06	-5.808945076888487	-2.746252765087057	26.02637614071776	0	0.9399999999999999	0	45.68042638920149	-11.61641534782935	-11.84856032329217	50.25177748739195	0.8770589721345529	0	0	0	45.68042638920149	-11.61641534782935	-11.84856032329217	50.25177748739195	0.8770589721345529	0	0	0	-3.525048764371039	-2.117304821718913	5.170566516584683	33.53619363244815	-8.020187960137012	-2.469034776349264	52.57637994782812	142.5258286114998	0	0	31.38848114253967	-9.809330808353298	-3.64368720899705	38.30565366129348	119.8250479608275	0	0
0.08	-5.803602260242904	-2.740955557054444	26.03699379456725	0	0.9399999999999999	0	45.68068955048911	-11.61779118507918	-11.84986466183732	50.2504829009994	0.8770363773395513	0	0	0	45.68068955048911	-11.61779118507918	-11.84986466183732	50.2504829009994	0.8770363773395513	0	0	0	-3.517201994370657	-2.11529744089026	5.168971436028768	33.53001612528404	-8.026640737094459	-2.476726284839403	52.53176238771109	142.5692418999644	0	0	31.41908819015305	-9.803360875616628	-3.678588449060525	38.24450496716372	119.8571450110837	0	0
0.1	-5.788312057597622	-2.731938334311772	26.0481767578206	0	0.9399999999999999	0	45.68089588631871	-11.61829842792733	-11.85065254678628	50.249413674667	0.8770177158196019	0	0	0	45.68089588631871	-11.61829842792733	-11.85065254678628	50.249413674667	0.8770177158196019	0	0	0	-3.498839961518642	-2.114358965458214	5.168339979688334	33.53400237338286	-8.021987756982279	-2.46276491382052	52.48663145461483	142.5822508419745	0	0	31.39738289971183	-9.811433917642956	-3.670066122158398	38.17182210637377	119.9203642003624	0	0
0.12	-5.784580564439212	-2.723538379386633	26.05077196802849	0	0.9399999999999999	0	45.68038872771551	-11.61287229404393	-11.84706483543927	50.25167932841157	0.8770572589371547	0	0	0	45.68038872771551	-11.61287229404393	-11.84706483543927	50.25167932841157	0.8770572589371547	0	0	0	-3.493096567682064	-2.107628463666535	5.169064617133037	33.53669414170596	-8.034887166802127	-2.448016481541904	52.50526060970047	142.5345485610355	0	0	31.40266321739092	-9.81947568923793	-3.651686297599352	38.20066172686634	119.9229165984838	0	0
0.14	-5.793188214590214	-2.723509702734654	26.06004686339876	0	0.9399999999999999	0	45.68054246777768	-11.6157771350916	-11.84870685960583	50.25114755406608	0.8770479777239483	0	0	0	45.68054246777768	-11.6157771350916	-11.84870685960583	50.25114755406608	0.8770479777239483	0	0	0	-3.499805816122922	-2.105442779169962	5.187166861239108	33.55373836032033	-8.037681317236705	-2.464877820049336	52.48643437027235	142.571502426877	0	0	31.42242186153066	-9.796150491442473	-3.614113526138112	38.16335290382687	120.0889999941179	0	0
0.16	-5.783452580997543	-2.714749878607251	26.05228508325709	0	0.9399999999999999	0	45.68038245528283	-11.61358895764425	-11.84739384803447	50.25182762672065	0.8770598472309235	1.342219891195964e-35	0	0	45.68038245528283	-11.61358895764425	-11.84739384803447	50.25182762672065	0.8770598472309235	1.342219891195964e-35	0	0	-3.48746089210182	-2.101858796429604	5.19007238261231	33.54577936502027	-8.040878396753994	-2.439178003665005	52.48981249557256	142.5640497399645	0	0	31.4002808777453	-9.800712195585124	-3.580981587272867	38.16413622365951	120.1241289081987	0	0
0.18	-5.776690831192872	-2.708703272423254	26.05330292700847	0	0.9399999999999999	0	45.67981203283953	-11.60919603941566	-11.84410047522097	50.2545608769865	0.8771075514473433	-1.484078161368762e-52	0	0	45.67981203283953	-11.60919603941566	-11.84410047522097	50.2545608769865	0.8771075514473433	-1.484078161368762e-52	0	0	-3.479977206088179	-2.099079867583011	5.199061356635046	33.51835122299591	-8.047759437595722	-2.451895246924648	52.50184034498776	142.5301205260618	0	0	31.39567412516506	-9.802853487381293	-3.552706467095131	38.18438486842025	120.2310551294204	0	0
